<?xml version="1.0" standalone="no"?><!DOCTYPE svg PUBLIC "-//W3C//DTD SVG 1.1//EN" "http://www.w3.org/Graphics/SVG/1.1/DTD/svg11.dtd"><svg class="icon" height="512" viewBox="0 0 1024 1024" version="1.1" xmlns="http://www.w3.org/2000/svg"><path d="M156.5184 163.3152c-52.3648 0-89.4336 59.4048-89.4336 111.7568v581.1712c0 52.352 59.4304 89.408 111.7952 89.408h558.9376c52.3648 0 111.7824-59.4176 111.7824-111.7568v-357.632h67.072v402.3424c0 87.2448-77.4016 134.1312-164.672 134.1312H158.0416C70.7712 1012.7232 0 964.3392 0 877.0816V267.5072C0 180.2624 48.3968 99.776 135.68 99.776l423.2704-3.52v67.0592h-402.432z m386.4832 499.1104l-212.2368 60.2496 60.6336-210.8416 151.6032 150.592z m21.0944-20.9792L412.5056 490.8416 790.72 92.48 942.3104 243.072 564.096 641.4464z m446.784-466.5216l-45.4784 45.184L813.7984 69.504l45.4784-45.184c16.7552-16.64 43.0464-17.472 58.752-1.8816l94.7328 94.1312c15.7056 15.5904 14.848 41.7152-1.8816 58.3552z" fill="#41B3E8" /></svg>